<svg version="1.1" id="Layer_1" xmlns="http://www.w3.org/2000/svg" xmlns:xlink="http://www.w3.org/1999/xlink" x="0px" y="0px"
	 width="100%" viewBox="0 0 408 216" enable-background="new 0 0 408 216" xml:space="preserve">
<path fill="#4C6971" opacity="1.000000" stroke="none" 
	d="
M253.000000,217.000000 
	C168.666687,217.000000 84.833382,217.000000 1.000056,217.000000 
	C1.000037,145.000046 1.000037,73.000092 1.000019,1.000104 
	C136.999908,1.000070 272.999817,1.000070 408.999817,1.000035 
	C408.999878,72.999893 408.999878,144.999786 408.999939,216.999847 
	C357.166656,217.000000 305.333344,217.000000 253.000000,217.000000 
M106.663300,128.640137 
	C106.785172,127.806587 106.907043,126.973030 107.771584,125.736641 
	C111.525238,125.489380 115.285812,124.971283 119.030693,125.067047 
	C123.213264,125.174011 123.992805,122.879654 124.041321,119.466141 
	C124.090706,115.991928 123.640617,113.061920 119.223358,113.002502 
	C117.732994,112.982452 116.242264,112.986961 114.751694,112.984184 
	C107.875702,112.971405 107.875702,112.971901 108.113670,104.994469 
	C110.164238,104.994469 112.341644,105.362984 114.299492,104.866219 
	C115.626968,104.529388 116.646095,102.977280 117.909790,101.227913 
	C117.876183,100.481735 117.842575,99.735550 117.930267,98.175270 
	C119.345703,92.712051 114.426956,93.504929 112.178886,91.415817 
	C115.112602,88.458130 118.081802,85.534599 120.970428,82.533516 
	C124.084366,79.298363 124.661873,70.223900 121.791725,65.907295 
	C120.322014,67.296494 118.876762,68.597450 117.503456,69.970390 
	C96.829750,90.638603 76.166832,111.317612 55.498352,131.991058 
	C48.237835,139.253326 40.908512,146.448746 33.768829,153.827805 
	C32.685368,154.947586 31.528236,157.495255 32.059959,158.336395 
	C32.912922,159.685699 35.406754,161.159698 36.749229,160.812164 
	C40.286518,159.896469 44.013340,158.588608 46.843964,156.383438 
	C49.678375,154.175308 51.481369,153.284958 54.931232,155.331131 
	C67.227936,162.624557 80.418884,163.102692 90.957184,153.570053 
	C98.848656,146.431671 106.796547,144.236145 116.512115,144.758255 
	C116.787209,144.773041 117.079170,144.474030 117.971306,143.994522 
	C117.971306,141.700180 118.025475,139.082230 117.956551,136.467529 
	C117.883118,133.681915 116.752876,132.856186 113.760628,133.447800 
	C111.340393,133.926300 108.668037,133.129639 106.050301,132.126953 
	C106.086288,131.095795 106.122284,130.064621 106.663300,128.640137 
M282.988159,144.011688 
	C282.988159,144.011688 282.936218,144.037277 283.303528,144.657471 
	C287.771912,146.787308 290.435333,145.008347 290.877686,139.026154 
	C291.243378,134.080399 290.997498,129.089447 291.623444,123.617165 
	C292.943481,116.341446 293.798523,108.943512 295.672546,101.813393 
	C300.861206,82.071983 309.336456,63.707153 320.099365,46.387577 
	C321.841339,43.584396 323.562134,40.510849 320.237457,38.015182 
	C317.341736,35.841484 314.199646,36.678310 311.960205,39.573448 
	C305.915039,47.388695 299.865234,55.203358 293.993042,63.148155 
	C291.194794,66.934067 288.795837,71.015121 286.162476,75.044373 
	C279.242828,68.018074 271.975647,67.916458 267.606140,75.161598 
	C262.846558,83.053558 258.822815,91.409058 254.803528,99.719765 
	C252.667572,104.136375 254.476532,110.555359 257.998474,113.335655 
	C261.112946,115.794281 267.062592,115.575096 270.961578,112.332733 
	C273.878357,109.907181 276.389709,106.966110 278.918335,104.110069 
	C281.151489,101.587761 283.158936,98.865601 285.447876,96.004402 
	C284.563812,103.343399 283.743317,110.154839 282.350769,117.590378 
	C281.911682,125.008736 281.362854,132.423676 281.131714,139.848495 
	C281.088593,141.233429 282.320618,142.658066 282.988159,144.011688 
M242.539948,60.122715 
	C242.539948,60.122715 242.068268,60.173035 241.358444,60.109596 
	C229.562927,67.271294 221.423599,77.582314 215.542801,89.890312 
	C211.169952,99.042305 212.743393,106.058044 220.722443,112.164581 
	C224.781540,115.271095 232.787460,115.998718 236.759140,113.622093 
	C242.506485,110.182922 244.594467,105.480171 243.236847,97.509766 
	C241.103989,98.463783 239.019333,99.035904 237.368332,100.215187 
	C234.558380,102.222267 232.157440,104.813560 229.300552,106.737526 
	C228.198868,107.479446 225.687027,107.745232 224.935120,107.038734 
	C223.538315,105.726242 221.921021,103.324844 222.245163,101.759933 
	C223.115021,97.560631 224.961746,93.563667 226.683578,88.751045 
	C229.978333,93.163223 233.617676,94.899475 236.639648,91.591156 
	C241.595810,86.165359 245.662323,79.926872 250.651932,73.596260 
	C251.414001,71.987747 252.350311,70.435875 252.896149,68.757050 
	C253.661804,66.402077 255.298340,63.795582 251.484802,61.366203 
	C248.659042,60.978325 245.833298,60.590450 242.539948,60.122715 
M187.317703,87.295395 
	C187.445511,87.415749 187.573303,87.536095 187.306381,88.300606 
	C187.482468,92.532677 191.754547,94.959435 195.035950,92.212219 
	C203.449524,85.168327 209.014572,75.986870 212.721146,65.769089 
	C213.169922,64.531990 211.577637,61.633514 210.170532,60.818474 
	C206.102783,58.462296 202.030884,58.256329 197.752899,61.465221 
	C187.370453,69.253014 179.116714,78.690948 173.856964,90.559380 
	C169.736664,99.856644 172.048187,108.234108 180.885468,113.103104 
	C190.259033,118.267578 200.116730,113.984039 202.837097,103.246300 
	C203.198761,101.818726 201.969498,99.988091 201.477020,98.344116 
	C199.865723,98.847389 198.012924,99.005386 196.694595,99.927513 
	C194.135391,101.717598 192.079498,104.279922 189.419708,105.854424 
	C187.728256,106.855705 184.428604,107.643860 183.451920,106.759171 
	C182.006042,105.449509 181.021255,102.305023 181.543259,100.411140 
	C182.820984,95.775490 185.074234,91.408714 187.317703,87.295395 
M78.213028,96.343987 
	C78.383034,94.409073 78.903191,92.427635 78.653503,90.548485 
	C78.047958,85.991180 79.438797,84.561020 84.037804,85.521774 
	C88.531952,86.460617 90.978012,84.789398 91.964417,80.512627 
	C93.028473,75.899178 94.511299,71.380981 95.532066,66.759529 
	C95.922676,64.991051 96.283394,62.245979 95.339348,61.375126 
	C93.842247,59.994083 90.879051,58.793541 89.192101,59.385632 
	C87.108604,60.116894 85.449921,62.589767 84.047112,64.614548 
	C81.420715,68.405403 82.334549,74.301979 74.085228,73.901276 
	C64.093697,73.415955 63.807091,74.615356 60.211243,65.433739 
	C59.731171,64.207939 59.669567,62.459934 58.787441,61.826363 
	C57.082928,60.602123 54.844055,59.123032 52.981865,59.308403 
	C47.830315,59.821213 46.332642,63.791382 49.235008,69.321678 
	C52.036530,74.659843 55.003082,79.681564 47.738708,83.881706 
	C47.246937,84.166031 47.080109,84.998306 46.741123,85.563126 
	C43.546787,90.885498 39.551571,94.298698 32.630703,93.129898 
	C28.844625,92.490486 25.994951,93.946472 25.931196,98.859032 
	C25.868870,103.661331 28.347771,104.887947 32.364578,104.995430 
	C33.806950,105.034027 35.245029,105.233116 37.226715,105.406281 
	C36.556705,108.197609 36.004482,110.498215 35.535656,112.451408 
	C31.571438,113.041893 27.950768,113.029045 24.825392,114.266815 
	C23.121288,114.941704 21.756676,117.582802 21.131296,119.612129 
	C20.197401,122.642601 22.448046,124.297600 25.085615,124.788849 
	C27.343323,125.209351 29.781401,124.665314 32.037144,125.091148 
	C33.653820,125.396339 35.683327,126.209595 36.523396,127.467514 
	C40.171021,132.929428 41.609501,133.577087 46.358089,128.961243 
	C57.085484,118.533707 67.439034,107.721565 78.213028,96.343987 
M323.069183,91.936157 
	C323.960724,91.718788 325.248657,91.011803 325.680908,91.361748 
	C329.042725,94.083527 332.373077,93.874847 334.820770,90.636826 
	C340.018219,83.761185 345.101837,76.756462 349.576080,69.405327 
	C350.795288,67.402199 350.494385,61.983318 349.485931,61.571270 
	C346.159119,60.212009 341.207062,58.780334 338.631104,60.315800 
	C325.619995,68.071320 316.817627,79.637451 311.077820,93.709038 
	C307.718170,101.945518 315.082245,112.253075 322.351776,114.664429 
	C330.529175,117.376930 338.394196,112.879219 341.016632,103.846313 
	C341.480011,102.250206 340.657806,100.280884 340.429260,98.483902 
	C338.829834,98.940453 337.002472,99.050591 335.676575,99.922897 
	C332.549500,101.980217 329.824371,104.684334 326.598450,106.538315 
	C325.257812,107.308777 322.402985,107.282013 321.403534,106.357040 
	C320.066437,105.119568 319.040588,102.506615 319.360504,100.754379 
	C319.877686,97.921165 321.599762,95.307899 323.069183,91.936157 
M365.406860,107.898811 
	C359.411072,105.257011 359.437775,98.540977 365.545868,90.063576 
	C369.147491,94.084297 373.717010,94.226273 376.714020,90.419830 
	C382.275940,83.355652 387.144012,75.686516 391.633789,67.885292 
	C392.554657,66.285286 390.649902,60.879631 389.872559,60.841976 
	C385.447479,60.627644 380.070496,60.105648 376.677094,62.279472 
	C366.321594,68.913261 359.179443,78.703186 354.042297,89.896461 
	C349.171722,100.508911 352.655670,109.584801 363.381592,114.138115 
	C371.188354,117.452209 381.763702,111.728592 382.856934,103.400635 
	C383.064026,101.823158 382.053436,100.085838 381.604706,98.422264 
	C379.868774,98.981461 377.902100,99.194786 376.442749,100.168488 
	C372.893616,102.536514 369.580048,105.257629 365.406860,107.898811 
M139.395187,112.862564 
	C143.450150,115.902260 145.113190,115.744606 147.988388,110.956688 
	C155.131699,99.061356 162.072449,87.043190 168.988846,75.013588 
	C170.859314,71.760292 172.587204,68.377777 173.895859,64.873566 
	C174.371872,63.598984 173.435745,61.797035 173.143890,60.235695 
	C171.567017,60.886822 169.332672,61.083721 168.518677,62.261906 
	C162.711823,70.666924 157.203629,79.278000 151.575211,87.806892 
	C150.786530,89.001999 149.860275,90.106308 148.997696,91.252647 
	C148.616638,91.035454 148.235580,90.818253 147.854523,90.601059 
	C148.397675,88.764671 149.033234,86.949684 149.464615,85.087402 
	C150.348923,81.269867 151.472305,77.459740 151.836563,73.584457 
	C152.144348,70.310066 149.043930,69.485352 146.710693,69.632050 
	C145.403854,69.714211 143.645767,71.702469 143.106964,73.197929 
	C141.550949,77.516769 140.196304,81.961197 139.334579,86.465729 
	C137.700943,95.005432 135.706436,103.609955 139.395187,112.862564 
M159.215317,175.351456 
	C160.696915,175.429031 162.178497,175.506622 163.660095,175.584198 
	C163.661011,175.293442 163.661911,175.002686 163.662811,174.711914 
	C164.716568,175.521744 165.770325,176.331573 167.586487,177.727356 
	C168.129410,173.036606 168.704849,169.349915 168.942795,165.641571 
	C169.173248,162.050186 166.309891,160.778397 163.732697,161.255280 
	C161.950531,161.585052 159.695999,163.835159 159.207748,165.646378 
	C158.456955,168.431595 159.041336,171.576721 159.215317,175.351456 
M271.181152,161.034882 
	C267.996613,160.930618 264.522766,160.552994 264.083344,165.031677 
	C263.810822,167.808914 263.578339,170.757935 264.243439,173.399292 
	C264.674164,175.109955 266.528992,177.192673 268.163910,177.666992 
	C269.848907,178.155838 272.561707,177.478546 273.901550,176.279648 
	C276.590851,173.873245 275.035919,163.655243 271.181152,161.034882 
M185.027679,170.147324 
	C184.677628,167.232452 186.170532,163.492371 181.019073,161.910797 
	C181.019073,165.918350 180.476776,169.495941 181.223099,172.780746 
	C181.668503,174.741074 183.833359,176.969086 185.767090,177.772263 
	C188.396301,178.864334 191.362030,177.721619 192.031921,174.578888 
	C192.743195,171.241959 192.751831,167.734924 192.811905,164.297714 
	C192.823059,163.659058 191.623810,162.999252 190.983185,162.349197 
	C190.350769,163.008224 189.266922,163.607956 189.171143,164.337433 
	C188.891083,166.470016 189.226929,168.690872 188.879120,170.804337 
	C188.679398,172.017975 187.621460,173.090363 186.949875,174.226349 
	C186.310944,173.142181 185.671997,172.058029 185.027679,170.147324 
M290.013214,162.211914 
	C289.045074,162.874268 287.285828,163.485641 287.239319,164.207336 
	C286.971436,168.365021 287.108795,172.548813 287.108795,176.723755 
	C287.779297,176.906876 288.449799,177.089996 289.120270,177.273117 
	C289.992035,175.468628 290.863770,173.664154 291.640198,172.056976 
	C292.719421,173.737823 293.970520,175.686310 295.221619,177.634796 
	C295.641388,177.428299 296.061188,177.221802 296.480957,177.015305 
	C296.480957,172.122345 296.480957,167.229401 296.480957,162.336441 
	C296.022827,162.226654 295.564728,162.116852 295.106598,162.007065 
	C294.545044,163.697617 293.983490,165.388184 293.354218,167.282532 
	C292.438782,165.669220 291.559143,164.118973 290.013214,162.211914 
M308.989563,167.811905 
	C309.497803,170.508911 309.250427,173.799255 310.754303,175.714401 
	C311.948273,177.234879 315.380981,177.735901 317.636414,177.412262 
	C319.029266,177.212372 320.078522,174.618317 321.282013,173.099106 
	C320.918152,172.794632 320.554291,172.490158 320.190430,172.185684 
	C318.022552,172.783920 315.854675,173.382141 313.059052,174.153595 
	C313.059052,171.510956 312.596375,169.534744 313.212555,167.988388 
	C313.666046,166.850250 315.436523,166.009888 316.794464,165.528015 
	C317.964996,165.112625 319.381653,165.390808 320.689514,165.362350 
	C319.449249,163.913803 318.436127,161.567032 316.926147,161.185196 
	C312.406128,160.042328 309.764374,162.439407 308.989563,167.811905 
M208.726944,177.965378 
	C210.730316,176.778259 213.875336,176.025299 214.522903,174.322540 
	C216.461258,169.225723 210.204758,168.800797 208.149979,165.549423 
	C209.929108,165.131622 211.322540,164.804398 212.715973,164.477158 
	C212.898727,164.054062 213.081497,163.630966 213.264252,163.207870 
	C212.011627,162.477173 210.560440,160.941528 209.549561,161.190887 
	C207.700806,161.646881 205.176910,162.843002 204.679657,164.318542 
	C204.186691,165.781311 205.564133,168.157272 206.649460,169.779297 
	C207.512680,171.069366 209.172073,171.826721 210.547775,172.873672 
	C208.101624,173.838074 206.625946,174.419876 205.150253,175.001648 
	C206.088699,175.962631 207.027145,176.923630 208.726944,177.965378 
M140.921112,161.024796 
	C138.818512,161.431061 137.450836,162.014481 139.098251,164.568954 
	C140.057877,166.056915 140.632797,167.914597 140.924911,169.681290 
	C141.307373,171.994370 141.239624,174.381897 141.424469,177.839432 
	C147.678436,173.267975 142.503220,166.381805 147.989960,162.035873 
	C145.046600,161.550476 143.379807,161.275589 140.921112,161.024796 
M228.988541,168.651764 
	C228.988541,171.376022 228.988541,174.100266 228.988541,176.824524 
	C229.749985,176.902573 230.511414,176.980637 231.272858,177.058685 
	C232.090790,172.293747 232.908707,167.528809 233.928162,161.589905 
	C231.995880,161.436356 229.214355,161.215332 225.345963,160.907928 
	C226.939362,163.971878 227.948807,165.912964 228.988541,168.651764 
M337.534973,168.127640 
	C337.418762,167.058670 337.197021,165.987823 337.216125,164.921280 
	C337.235046,163.863281 337.792572,162.721832 337.517334,161.793915 
	C337.393616,161.376740 335.589355,160.968735 334.958588,161.311905 
	C334.120850,161.767654 333.207184,162.936523 333.159332,163.843002 
	C332.959808,167.620316 332.775635,171.451584 333.245514,175.179916 
	C333.393402,176.353714 335.602966,177.267685 336.851807,178.286636 
	C337.260956,174.368179 337.552032,171.580658 337.534973,168.127640 
z"/>
<path fill="#8C82FC" opacity="1.000000" stroke="none" 
	d="
M117.808968,98.989372 
	C117.842575,99.735550 117.876183,100.481735 117.528519,101.700104 
	C115.226357,102.472420 113.257492,103.202087 111.393364,102.993889 
	C105.262360,102.309151 103.011650,104.588989 105.609726,110.045647 
	C106.773048,112.488930 109.848206,114.021927 112.403473,115.932053 
	C115.513092,116.005661 118.274979,116.115219 121.029480,116.366196 
	C121.022079,116.507599 121.001770,116.790085 120.977539,117.210808 
	C120.984344,121.446770 118.894714,122.853088 115.293694,122.989586 
	C112.497894,123.095558 109.718956,123.646362 106.775940,124.147957 
	C106.411842,124.495834 106.206299,124.697205 105.867348,125.228638 
	C105.482468,126.701523 105.232964,127.846359 104.992203,128.994476 
	C105.000938,128.997742 104.991913,128.983231 104.826263,129.279449 
	C103.175911,134.559860 103.751160,135.465195 108.743790,135.953964 
	C109.569290,136.034760 110.567513,135.770889 111.197441,136.148071 
	C112.730850,137.066223 114.094795,138.267395 115.526993,139.354584 
	C114.020142,140.535065 112.642372,142.446503 110.978935,142.740250 
	C107.752502,143.310028 104.365456,142.970306 100.702263,143.095306 
	C98.535820,144.561539 96.253532,145.605362 94.963669,147.373260 
	C87.292068,157.888046 66.874786,160.060852 57.998470,153.977722 
	C52.718449,150.359207 49.031700,150.452087 44.872330,155.364380 
	C42.506706,158.158249 39.039272,158.887039 36.520199,157.447586 
	C64.453873,129.437119 92.439140,101.374916 120.424088,73.313034 
	C121.672020,76.401108 120.659790,79.536285 117.989876,82.500847 
	C115.227737,85.567818 112.649384,88.800301 109.983795,91.973373 
	C109.976952,91.986351 109.960678,92.009087 109.840622,92.129387 
	C109.788200,92.812744 109.855835,93.375801 110.276146,94.061829 
	C113.022202,95.786324 115.415588,97.387848 117.808968,98.989372 
z"/>
<path fill="#8C82F8" opacity="1.000000" stroke="none" 
	d="
M78.078842,96.704926 
	C67.439034,107.721565 57.085484,118.533707 46.358089,128.961243 
	C41.609501,133.577087 40.171021,132.929428 36.523396,127.467514 
	C35.683327,126.209595 33.653820,125.396339 32.037144,125.091148 
	C29.781401,124.665314 27.343323,125.209351 25.085615,124.788849 
	C22.448046,124.297600 20.197401,122.642601 21.131296,119.612129 
	C21.756676,117.582802 23.121288,114.941704 24.825392,114.266815 
	C27.950768,113.029045 31.571438,113.041893 35.535656,112.451408 
	C36.004482,110.498215 36.556705,108.197609 37.226715,105.406281 
	C35.245029,105.233116 33.806950,105.034027 32.364578,104.995430 
	C28.347771,104.887947 25.868870,103.661331 25.931196,98.859032 
	C25.994951,93.946472 28.844625,92.490486 32.630703,93.129898 
	C39.551571,94.298698 43.546787,90.885498 46.741123,85.563126 
	C47.080109,84.998306 47.246937,84.166031 47.738708,83.881706 
	C55.003082,79.681564 52.036530,74.659843 49.235008,69.321678 
	C46.332642,63.791382 47.830315,59.821213 52.981865,59.308403 
	C54.844055,59.123032 57.082928,60.602123 58.787441,61.826363 
	C59.669567,62.459934 59.731171,64.207939 60.211243,65.433739 
	C63.807091,74.615356 64.093697,73.415955 74.085228,73.901276 
	C82.334549,74.301979 81.420715,68.405403 84.047112,64.614548 
	C85.449921,62.589767 87.108604,60.116894 89.192101,59.385632 
	C90.879051,58.793541 93.842247,59.994083 95.339348,61.375126 
	C96.283394,62.245979 95.922676,64.991051 95.532066,66.759529 
	C94.511299,71.380981 93.028473,75.899178 91.964417,80.512627 
	C90.978012,84.789398 88.531952,86.460617 84.037804,85.521774 
	C79.438797,84.561020 78.047958,85.991180 78.653503,90.548485 
	C78.903191,92.427635 78.383034,94.409073 78.078842,96.704926 
M65.543716,84.068268 
	C63.772884,84.123047 61.662853,83.591644 60.312481,84.373047 
	C58.392769,85.483879 56.410179,87.330750 55.678730,89.314545 
	C55.278465,90.400124 57.118702,93.421013 58.440220,93.785194 
	C60.704647,94.409210 63.941406,94.484962 65.716087,93.261879 
	C69.021187,90.984009 69.259605,87.533577 65.543716,84.068268 
z"/>
<path fill="#8B81F7" opacity="1.000000" stroke="none" 
	d="
M282.922791,116.966278 
	C283.743317,110.154839 284.563812,103.343399 285.447876,96.004402 
	C283.158936,98.865601 281.151489,101.587761 278.918335,104.110069 
	C276.389709,106.966110 273.878357,109.907181 270.961578,112.332733 
	C267.062592,115.575096 261.112946,115.794281 257.998474,113.335655 
	C254.476532,110.555359 252.667572,104.136375 254.803528,99.719765 
	C258.822815,91.409058 262.846558,83.053558 267.606140,75.161598 
	C271.975647,67.916458 279.242828,68.018074 286.162476,75.044373 
	C288.795837,71.015121 291.194794,66.934067 293.993042,63.148155 
	C299.865234,55.203358 305.915039,47.388695 311.960205,39.573448 
	C314.199646,36.678310 317.341736,35.841484 320.237457,38.015182 
	C323.562134,40.510849 321.841339,43.584396 320.099365,46.387577 
	C309.336456,63.707153 300.861206,82.071983 295.672546,101.813393 
	C293.798523,108.943512 292.943481,116.341446 291.258850,123.700760 
	C290.640900,123.627716 290.399658,123.440025 290.126740,123.333740 
	C290.046814,123.302612 289.772552,123.493553 289.763000,123.598671 
	C289.350616,128.144989 289.016266,132.699142 288.544067,137.239014 
	C288.185059,140.690887 287.251190,143.791443 282.936218,144.037277 
	C282.936218,144.037277 282.988159,144.011688 282.996826,143.597717 
	C282.977905,134.444595 282.950348,125.705437 282.922791,116.966278 
M271.568909,97.945305 
	C275.106842,92.993103 276.863159,87.652695 275.336304,80.112297 
	C269.712433,89.248459 263.272797,96.445892 262.369568,108.050720 
	C265.880066,104.169205 268.463593,101.312653 271.568909,97.945305 
z"/>
<path fill="#897FF4" opacity="1.000000" stroke="none" 
	d="
M322.941101,92.268951 
	C321.599762,95.307899 319.877686,97.921165 319.360504,100.754379 
	C319.040588,102.506615 320.066437,105.119568 321.403534,106.357040 
	C322.402985,107.282013 325.257812,107.308777 326.598450,106.538315 
	C329.824371,104.684334 332.549500,101.980217 335.676575,99.922897 
	C337.002472,99.050591 338.829834,98.940453 340.429260,98.483902 
	C340.657806,100.280884 341.480011,102.250206 341.016632,103.846313 
	C338.394196,112.879219 330.529175,117.376930 322.351776,114.664429 
	C315.082245,112.253075 307.718170,101.945518 311.077820,93.709038 
	C316.817627,79.637451 325.619995,68.071320 338.631104,60.315800 
	C341.207062,58.780334 346.159119,60.212009 349.485931,61.571270 
	C350.494385,61.983318 350.795288,67.402199 349.576080,69.405327 
	C345.101837,76.756462 340.018219,83.761185 334.820770,90.636826 
	C332.373077,93.874847 329.042725,94.083527 325.680908,91.361748 
	C325.248657,91.011803 323.960724,91.718788 322.941101,92.268951 
M342.041626,67.959450 
	C339.917267,69.286644 337.242950,70.177284 335.775513,72.025940 
	C331.946625,76.849380 328.646301,82.092392 325.135193,87.168068 
	C334.171021,83.747192 338.056580,76.132660 342.041626,67.959450 
z"/>
<path fill="#887FF4" opacity="1.000000" stroke="none" 
	d="
M186.934906,86.933739 
	C185.074234,91.408714 182.820984,95.775490 181.543259,100.411140 
	C181.021255,102.305023 182.006042,105.449509 183.451920,106.759171 
	C184.428604,107.643860 187.728256,106.855705 189.419708,105.854424 
	C192.079498,104.279922 194.135391,101.717598 196.694595,99.927513 
	C198.012924,99.005386 199.865723,98.847389 201.477020,98.344116 
	C201.969498,99.988091 203.198761,101.818726 202.837097,103.246300 
	C200.116730,113.984039 190.259033,118.267578 180.885468,113.103104 
	C172.048187,108.234108 169.736664,99.856644 173.856964,90.559380 
	C179.116714,78.690948 187.370453,69.253014 197.752899,61.465221 
	C202.030884,58.256329 206.102783,58.462296 210.170532,60.818474 
	C211.577637,61.633514 213.169922,64.531990 212.721146,65.769089 
	C209.014572,75.986870 203.449524,85.168327 195.035950,92.212219 
	C191.754547,94.959435 187.482468,92.532677 187.778809,87.790054 
	C196.821472,83.301842 199.646667,74.829895 203.742264,67.329887 
	C195.871445,71.917007 191.619263,79.611969 186.934906,86.933739 
z"/>
<path fill="#897FF4" opacity="1.000000" stroke="none" 
	d="
M365.789246,107.867661 
	C369.580048,105.257629 372.893616,102.536514 376.442749,100.168488 
	C377.902100,99.194786 379.868774,98.981461 381.604706,98.422272 
	C382.053436,100.085838 383.064026,101.823158 382.856934,103.400635 
	C381.763702,111.728592 371.188354,117.452209 363.381592,114.138115 
	C352.655670,109.584801 349.171722,100.508911 354.042297,89.896461 
	C359.179443,78.703186 366.321594,68.913261 376.677094,62.279472 
	C380.070496,60.105648 385.447479,60.627644 389.872559,60.841976 
	C390.649902,60.879631 392.554657,66.285286 391.633789,67.885292 
	C387.144012,75.686516 382.275940,83.355652 376.714020,90.419830 
	C373.717010,94.226273 369.147491,94.084297 365.545868,90.063576 
	C359.437775,98.540977 359.411072,105.257011 365.789246,107.867661 
M382.385040,70.187202 
	C382.811646,69.339195 383.238251,68.491188 383.664856,67.643188 
	C383.147491,67.290756 382.630096,66.938324 382.112701,66.585892 
	C376.805023,73.264938 371.497345,79.943985 366.189667,86.623032 
	C366.680786,87.018532 367.171936,87.414024 367.663086,87.809517 
	C374.047272,83.536873 378.928894,77.944420 382.385040,70.187202 
z"/>
<path fill="#897FF5" opacity="1.000000" stroke="none" 
	d="
M250.104004,74.031113 
	C245.662323,79.926872 241.595810,86.165359 236.639648,91.591156 
	C233.617676,94.899475 229.978333,93.163223 226.683578,88.751045 
	C224.961746,93.563667 223.115021,97.560631 222.245163,101.759933 
	C221.921021,103.324844 223.538315,105.726242 224.935120,107.038734 
	C225.687027,107.745232 228.198868,107.479446 229.300552,106.737526 
	C232.157440,104.813560 234.558380,102.222267 237.368332,100.215187 
	C239.019333,99.035904 241.103989,98.463783 243.236847,97.509766 
	C244.594467,105.480171 242.506485,110.182922 236.759140,113.622093 
	C232.787460,115.998718 224.781540,115.271095 220.722443,112.164581 
	C212.743393,106.058044 211.169952,99.042305 215.542801,89.890312 
	C221.423599,77.582314 229.562927,67.271294 241.827316,60.173721 
	C242.296188,60.237843 242.653748,60.259876 242.653748,60.259876 
	C242.653748,60.259876 243.007538,60.202572 243.007538,60.202572 
	C245.833298,60.590450 248.659042,60.978325 251.706299,62.043198 
	C251.319855,66.490501 250.711929,70.260803 250.104004,74.031113 
M235.130875,76.681892 
	C232.867752,80.014702 230.604630,83.347504 228.341507,86.680313 
	C237.140839,83.285271 241.012802,75.821983 244.959259,68.420982 
	C244.524673,68.035629 244.090088,67.650276 243.655502,67.264923 
	C240.947525,70.202362 238.239548,73.139809 235.130875,76.681892 
z"/>
<path fill="#8A81F0" opacity="1.000000" stroke="none" 
	d="
M109.990631,91.960388 
	C112.649384,88.800301 115.227737,85.567818 117.989876,82.500847 
	C120.659790,79.536285 121.672020,76.401108 120.424088,73.313034 
	C92.439140,101.374916 64.453873,129.437119 36.520199,157.447586 
	C39.039272,158.887039 42.506706,158.158249 44.872330,155.364380 
	C49.031700,150.452087 52.718449,150.359207 57.998470,153.977722 
	C66.874786,160.060852 87.292068,157.888046 94.963669,147.373260 
	C96.253532,145.605362 98.535820,144.561539 101.085083,143.229889 
	C105.239708,143.488281 108.667412,143.834442 112.098335,143.869934 
	C114.947990,143.899429 117.288162,142.401886 116.586739,139.429504 
	C116.189026,137.744156 114.044533,136.177979 112.326424,135.175995 
	C110.440025,134.075867 108.139412,133.686035 106.041306,132.964645 
	C106.063332,132.942596 106.107513,132.898636 106.107513,132.898636 
	C108.668037,133.129639 111.340393,133.926300 113.760628,133.447800 
	C116.752876,132.856186 117.883118,133.681915 117.956551,136.467529 
	C118.025475,139.082230 117.971306,141.700180 117.971306,143.994522 
	C117.079170,144.474030 116.787209,144.773041 116.512115,144.758255 
	C106.796547,144.236145 98.848656,146.431671 90.957184,153.570053 
	C80.418884,163.102692 67.227936,162.624557 54.931232,155.331131 
	C51.481369,153.284958 49.678375,154.175308 46.843964,156.383438 
	C44.013340,158.588608 40.286518,159.896469 36.749229,160.812164 
	C35.406754,161.159698 32.912922,159.685699 32.059959,158.336395 
	C31.528236,157.495255 32.685368,154.947586 33.768829,153.827805 
	C40.908512,146.448746 48.237835,139.253326 55.498352,131.991058 
	C76.166832,111.317612 96.829750,90.638603 117.503456,69.970390 
	C118.876762,68.597450 120.322014,67.296494 121.791725,65.907295 
	C124.661873,70.223900 124.084366,79.298363 120.970428,82.533516 
	C118.081802,85.534599 115.112602,88.458130 111.698929,91.702103 
	C110.809517,91.979057 110.400078,91.969719 109.990631,91.960388 
z"/>
<path fill="#847BEF" opacity="1.000000" stroke="none" 
	d="
M139.137115,112.562782 
	C135.706436,103.609955 137.700943,95.005432 139.334579,86.465729 
	C140.196304,81.961197 141.550949,77.516769 143.106964,73.197929 
	C143.645767,71.702469 145.403854,69.714211 146.710693,69.632050 
	C149.043930,69.485352 152.144348,70.310066 151.836563,73.584457 
	C151.472305,77.459740 150.348923,81.269867 149.464615,85.087402 
	C149.033234,86.949684 148.397675,88.764671 147.854523,90.601059 
	C148.235580,90.818253 148.616638,91.035454 148.997696,91.252647 
	C149.860275,90.106308 150.786530,89.001999 151.575211,87.806892 
	C157.203629,79.278000 162.711823,70.666924 168.518677,62.261906 
	C169.332672,61.083721 171.567017,60.886822 173.143890,60.235695 
	C173.435745,61.797035 174.371872,63.598984 173.895859,64.873566 
	C172.587204,68.377777 170.859314,71.760292 168.988846,75.013588 
	C162.072449,87.043190 155.131699,99.061356 147.988388,110.956688 
	C145.113190,115.744606 143.450150,115.902260 139.137115,112.562782 
M167.577148,67.267601 
	C162.269394,75.318893 157.054398,83.434296 151.572815,91.365448 
	C150.521912,92.885994 148.422333,93.681755 146.806549,94.811882 
	C146.467072,92.685524 145.523849,90.438934 145.918198,88.458733 
	C146.658752,84.740280 148.387756,81.225784 149.247803,77.520195 
	C149.548615,76.224045 148.501511,74.615059 148.069931,73.148949 
	C146.968521,74.143051 145.187698,74.961533 144.877823,76.160248 
	C143.092422,83.067055 141.395706,90.020142 140.211929,97.048981 
	C139.643097,100.426575 140.052261,104.029381 140.449463,107.480598 
	C140.617905,108.944077 141.893616,110.280113 142.666077,111.674065 
	C143.960587,110.822258 145.464767,110.167076 146.495453,109.067894 
	C147.728210,107.753220 148.648956,106.111252 149.544693,104.520844 
	C156.151627,92.790001 162.737259,81.047035 169.276062,69.278130 
	C170.159149,67.688698 170.743561,65.933311 171.466263,64.254776 
	C171.149292,64.108551 170.832321,63.962330 170.515350,63.816109 
	C169.666718,64.790771 168.818085,65.765434 167.577148,67.267601 
z"/>
<path fill="#9087F0" opacity="1.000000" stroke="none" 
	d="
M159.137268,174.960297 
	C159.041336,171.576721 158.456955,168.431595 159.207748,165.646378 
	C159.695999,163.835159 161.950531,161.585052 163.732697,161.255280 
	C166.309891,160.778397 169.173248,162.050186 168.942795,165.641571 
	C168.704849,169.349915 168.129410,173.036606 167.586487,177.727356 
	C165.770325,176.331573 164.716568,175.521744 163.662811,174.711914 
	C163.661911,175.002686 163.661011,175.293442 163.660095,175.584198 
	C162.178497,175.506622 160.696915,175.429031 159.137268,174.960297 
z"/>
<path fill="#8F86EF" opacity="1.000000" stroke="none" 
	d="
M271.600586,161.088882 
	C275.035919,163.655243 276.590851,173.873245 273.901550,176.279648 
	C272.561707,177.478546 269.848907,178.155838 268.163910,177.666992 
	C266.528992,177.192673 264.674164,175.109955 264.243439,173.399292 
	C263.578339,170.757935 263.810822,167.808914 264.083344,165.031677 
	C264.522766,160.552994 267.996613,160.930618 271.600586,161.088882 
M267.930878,173.198654 
	C272.170624,173.376404 272.510834,172.073761 269.890228,165.086044 
	C265.390411,166.439255 267.337250,169.871033 267.930878,173.198654 
z"/>
<path fill="#8F87EF" opacity="1.000000" stroke="none" 
	d="
M185.030365,170.560593 
	C185.671997,172.058029 186.310944,173.142181 186.949875,174.226349 
	C187.621460,173.090363 188.679398,172.017975 188.879120,170.804337 
	C189.226929,168.690872 188.891083,166.470016 189.171143,164.337433 
	C189.266922,163.607956 190.350769,163.008224 190.983185,162.349197 
	C191.623810,162.999252 192.823059,163.659058 192.811905,164.297714 
	C192.751831,167.734924 192.743195,171.241959 192.031921,174.578888 
	C191.362030,177.721619 188.396301,178.864334 185.767090,177.772263 
	C183.833359,176.969086 181.668503,174.741074 181.223099,172.780746 
	C180.476776,169.495941 181.019073,165.918350 181.019073,161.910797 
	C186.170532,163.492371 184.677628,167.232452 185.030365,170.560593 
z"/>
<path fill="#9087F0" opacity="1.000000" stroke="none" 
	d="
M290.346375,162.390320 
	C291.559143,164.118973 292.438782,165.669220 293.354218,167.282532 
	C293.983490,165.388184 294.545044,163.697617 295.106598,162.007065 
	C295.564728,162.116852 296.022827,162.226654 296.480957,162.336441 
	C296.480957,167.229401 296.480957,172.122345 296.480957,177.015305 
	C296.061188,177.221802 295.641388,177.428299 295.221619,177.634796 
	C293.970520,175.686310 292.719421,173.737823 291.640198,172.056976 
	C290.863770,173.664154 289.992035,175.468628 289.120270,177.273117 
	C288.449799,177.089996 287.779297,176.906876 287.108795,176.723755 
	C287.108795,172.548813 286.971436,168.365021 287.239319,164.207336 
	C287.285828,163.485641 289.045074,162.874268 290.346375,162.390320 
z"/>
<path fill="#8F87EF" opacity="1.000000" stroke="none" 
	d="
M309.002197,167.388519 
	C309.764374,162.439407 312.406128,160.042328 316.926147,161.185196 
	C318.436127,161.567032 319.449249,163.913803 320.689514,165.362350 
	C319.381653,165.390808 317.964996,165.112625 316.794464,165.528015 
	C315.436523,166.009888 313.666046,166.850250 313.212555,167.988388 
	C312.596375,169.534744 313.059052,171.510956 313.059052,174.153595 
	C315.854675,173.382141 318.022552,172.783920 320.190430,172.185684 
	C320.554291,172.490158 320.918152,172.794632 321.282013,173.099106 
	C320.078522,174.618317 319.029266,177.212372 317.636414,177.412262 
	C315.380981,177.735901 311.948273,177.234879 310.754303,175.714401 
	C309.250427,173.799255 309.497803,170.508911 309.002197,167.388519 
z"/>
<path fill="#9088F1" opacity="1.000000" stroke="none" 
	d="
M121.001770,116.790085 
	C121.001770,116.790085 121.022079,116.507599 120.782806,116.084763 
	C117.630592,113.443306 114.799477,113.494026 112.055756,115.968018 
	C109.848206,114.021927 106.773048,112.488930 105.609726,110.045647 
	C103.011650,104.588989 105.262360,102.309151 111.393364,102.993889 
	C113.257492,103.202087 115.226357,102.472420 117.475189,102.070496 
	C116.646095,102.977280 115.626968,104.529388 114.299492,104.866219 
	C112.341644,105.362984 110.164238,104.994469 108.113670,104.994469 
	C107.875702,112.971901 107.875702,112.971405 114.751694,112.984184 
	C116.242264,112.986961 117.732994,112.982452 119.223358,113.002502 
	C123.640617,113.061920 124.090706,115.991928 124.041321,119.466141 
	C123.992805,122.879654 123.213264,125.174011 119.030693,125.067047 
	C115.285812,124.971283 111.525238,125.489380 107.235031,125.727272 
	C106.466560,125.445465 106.234642,125.173027 106.002724,124.900597 
	C106.206299,124.697205 106.411842,124.495834 107.248878,124.153198 
	C110.533112,124.002396 113.190689,124.071205 115.841934,123.971550 
	C121.469063,123.760025 122.333740,122.515930 121.001770,116.790085 
z"/>
<path fill="#8F87EF" opacity="1.000000" stroke="none" 
	d="
M208.346268,177.924988 
	C207.027145,176.923630 206.088699,175.962631 205.150253,175.001648 
	C206.625946,174.419876 208.101624,173.838074 210.547775,172.873672 
	C209.172073,171.826721 207.512680,171.069366 206.649460,169.779297 
	C205.564133,168.157272 204.186691,165.781311 204.679657,164.318542 
	C205.176910,162.843002 207.700806,161.646881 209.549561,161.190887 
	C210.560440,160.941528 212.011627,162.477173 213.264252,163.207870 
	C213.081497,163.630966 212.898727,164.054062 212.715973,164.477158 
	C211.322540,164.804398 209.929108,165.131622 208.149979,165.549423 
	C210.204758,168.800797 216.461258,169.225723 214.522903,174.322540 
	C213.875336,176.025299 210.730316,176.778259 208.346268,177.924988 
z"/>
<path fill="#9087F0" opacity="1.000000" stroke="none" 
	d="
M141.317047,161.012756 
	C143.379807,161.275589 145.046600,161.550476 147.989960,162.035873 
	C142.503220,166.381805 147.678436,173.267975 141.424469,177.839432 
	C141.239624,174.381897 141.307373,171.994370 140.924911,169.681290 
	C140.632797,167.914597 140.057877,166.056915 139.098251,164.568954 
	C137.450836,162.014481 138.818512,161.431061 141.317047,161.012756 
z"/>
<path fill="#9087F0" opacity="1.000000" stroke="none" 
	d="
M228.973404,168.252899 
	C227.948807,165.912964 226.939362,163.971878 225.345963,160.907928 
	C229.214355,161.215332 231.995880,161.436356 233.928162,161.589905 
	C232.908707,167.528809 232.090790,172.293747 231.272858,177.058685 
	C230.511414,176.980637 229.749985,176.902573 228.988541,176.824524 
	C228.988541,174.100266 228.988541,171.376022 228.973404,168.252899 
z"/>
<path fill="#8F86EF" opacity="1.000000" stroke="none" 
	d="
M337.689026,168.460388 
	C337.552032,171.580658 337.260956,174.368179 336.851807,178.286636 
	C335.602966,177.267685 333.393402,176.353714 333.245514,175.179916 
	C332.775635,171.451584 332.959808,167.620316 333.159332,163.843002 
	C333.207184,162.936523 334.120850,161.767654 334.958588,161.311905 
	C335.589355,160.968735 337.393616,161.376740 337.517334,161.793915 
	C337.792572,162.721832 337.235046,163.863281 337.216125,164.921280 
	C337.197021,165.987823 337.418762,167.058670 337.689026,168.460388 
z"/>
<path fill="#7E75EE" opacity="1.000000" stroke="none" 
	d="
M283.119873,144.347382 
	C287.251190,143.791443 288.185059,140.690887 288.544067,137.239014 
	C289.016266,132.699142 289.350616,128.144989 289.763000,123.598671 
	C289.772552,123.493553 290.046814,123.302612 290.126740,123.333740 
	C290.399658,123.440025 290.640900,123.627716 290.958435,123.951431 
	C290.997498,129.089447 291.243378,134.080399 290.877686,139.026154 
	C290.435333,145.008347 287.771912,146.787308 283.119873,144.347382 
z"/>
<path fill="#7E75EE" opacity="1.000000" stroke="none" 
	d="
M282.636780,117.278328 
	C282.950348,125.705437 282.977905,134.444595 282.984802,143.624054 
	C282.320618,142.658066 281.088593,141.233429 281.131714,139.848495 
	C281.362854,132.423676 281.911682,125.008736 282.636780,117.278328 
z"/>
<path fill="#7E75EE" opacity="1.000000" stroke="none" 
	d="
M250.377960,73.813690 
	C250.711929,70.260803 251.319855,66.490501 251.969070,62.316322 
	C255.298340,63.795582 253.661804,66.402077 252.896149,68.757050 
	C252.350311,70.435875 251.414001,71.987747 250.377960,73.813690 
z"/>
<path fill="#9088F1" opacity="1.000000" stroke="none" 
	d="
M109.983795,91.973366 
	C110.400078,91.969719 110.809517,91.979057 111.525925,91.995094 
	C114.426956,93.504929 119.345703,92.712051 117.869614,98.582321 
	C115.415588,97.387848 113.022202,95.786324 110.281677,93.741257 
	C109.943245,92.868164 109.951958,92.438629 109.960678,92.009087 
	C109.960678,92.009087 109.976952,91.986351 109.983795,91.973366 
z"/>
<path fill="#8076EF" opacity="1.000000" stroke="none" 
	d="
M105.867348,125.228638 
	C106.234642,125.173027 106.466560,125.445465 106.863693,125.928696 
	C106.907043,126.973030 106.785172,127.806587 106.116798,128.827469 
	C105.374687,129.006943 105.179070,128.999069 104.983459,128.991196 
	C105.232964,127.846359 105.482468,126.701523 105.867348,125.228638 
z"/>
<path fill="#8A81F0" opacity="1.000000" stroke="none" 
	d="
M104.992203,128.994476 
	C105.179070,128.999069 105.374687,129.006943 105.864288,129.024139 
	C106.122284,130.064621 106.086288,131.095795 106.078903,132.512787 
	C106.107513,132.898636 106.063332,132.942596 105.900040,132.649887 
	C105.488472,131.232529 105.240189,130.107880 104.991913,128.983231 
	C104.991913,128.983231 105.000938,128.997742 104.992203,128.994476 
z"/>
<path fill="#7E75EE" opacity="1.000000" stroke="none" 
	d="
M242.773743,60.162643 
	C243.007538,60.202572 242.653748,60.259876 242.653748,60.259876 
	C242.653748,60.259876 242.296188,60.237843 242.182220,60.205437 
	C242.068268,60.173035 242.539948,60.122715 242.773743,60.162643 
z"/>
<path fill="#8076EF" opacity="1.000000" stroke="none" 
	d="
M104.826263,129.279449 
	C105.240189,130.107880 105.488472,131.232529 105.878021,132.671936 
	C108.139412,133.686035 110.440025,134.075867 112.326424,135.175995 
	C114.044533,136.177979 116.189026,137.744156 116.586739,139.429504 
	C117.288162,142.401886 114.947990,143.899429 112.098335,143.869934 
	C108.667412,143.834442 105.239708,143.488281 101.427780,143.142029 
	C104.365456,142.970306 107.752502,143.310028 110.978935,142.740250 
	C112.642372,142.446503 114.020142,140.535065 115.526993,139.354584 
	C114.094795,138.267395 112.730850,137.066223 111.197441,136.148071 
	C110.567513,135.770889 109.569290,136.034760 108.743790,135.953964 
	C103.751160,135.465195 103.175911,134.559860 104.826263,129.279449 
z"/>
<path fill="#7E75EE" opacity="1.000000" stroke="none" 
	d="
M120.977539,117.210808 
	C122.333740,122.515930 121.469063,123.760025 115.841934,123.971550 
	C113.190689,124.071205 110.533112,124.002396 107.405457,124.004684 
	C109.718956,123.646362 112.497894,123.095558 115.293694,122.989586 
	C118.894714,122.853088 120.984344,121.446770 120.977539,117.210808 
z"/>
<path fill="#7E75EE" opacity="1.000000" stroke="none" 
	d="
M112.403473,115.932053 
	C114.799477,113.494026 117.630592,113.443306 120.790207,115.943352 
	C118.274979,116.115219 115.513092,116.005661 112.403473,115.932053 
z"/>
<path fill="#8A81F0" opacity="1.000000" stroke="none" 
	d="
M109.840622,92.129387 
	C109.951958,92.438629 109.943245,92.868164 109.929001,93.618286 
	C109.855835,93.375801 109.788200,92.812744 109.840622,92.129387 
z"/>
<path fill="#8E86F1" opacity="1.000000" stroke="none" 
	d="
M65.838684,84.244965 
	C69.259605,87.533577 69.021187,90.984009 65.716087,93.261879 
	C63.941406,94.484962 60.704647,94.409210 58.440220,93.785194 
	C57.118702,93.421013 55.278465,90.400124 55.678730,89.314545 
	C56.410179,87.330750 58.392769,85.483879 60.312481,84.373047 
	C61.662853,83.591644 63.772884,84.123047 65.838684,84.244965 
M64.944160,89.143257 
	C63.880814,88.110451 62.951031,86.520187 61.711399,86.223167 
	C60.738953,85.990181 59.383247,87.356796 58.197811,88.012772 
	C59.080551,89.448318 59.676083,91.419365 60.959549,92.107735 
	C61.668343,92.487885 63.530815,90.716972 64.944160,89.143257 
z"/>
<path fill="#4C6971" opacity="1.000000" stroke="none" 
	d="
M271.307983,98.200699 
	C268.463593,101.312653 265.880066,104.169205 262.369568,108.050720 
	C263.272797,96.445892 269.712433,89.248459 275.336304,80.112297 
	C276.863159,87.652695 275.106842,92.993103 271.307983,98.200699 
z"/>
<path fill="#4C6971" opacity="1.000000" stroke="none" 
	d="
M342.009521,68.253662 
	C338.056580,76.132660 334.171021,83.747192 325.135193,87.168068 
	C328.646301,82.092392 331.946625,76.849380 335.775513,72.025940 
	C337.242950,70.177284 339.917267,69.286644 342.009521,68.253662 
z"/>
<path fill="#4C6971" opacity="1.000000" stroke="none" 
	d="
M187.126312,87.114563 
	C191.619263,79.611969 195.871445,71.917007 203.742264,67.329887 
	C199.646667,74.829895 196.821472,83.301842 187.976166,87.467972 
	C187.573303,87.536095 187.445511,87.415749 187.126312,87.114563 
z"/>
<path fill="#4C6971" opacity="1.000000" stroke="none" 
	d="
M382.223907,70.502014 
	C378.928894,77.944420 374.047272,83.536873 367.663086,87.809517 
	C367.171936,87.414024 366.680786,87.018532 366.189667,86.623032 
	C371.497345,79.943985 376.805023,73.264938 382.112701,66.585892 
	C382.630096,66.938324 383.147491,67.290756 383.664856,67.643188 
	C383.238251,68.491188 382.811646,69.339195 382.223907,70.502014 
z"/>
<path fill="#4C6971" opacity="1.000000" stroke="none" 
	d="
M235.331223,76.379578 
	C238.239548,73.139809 240.947525,70.202362 243.655502,67.264923 
	C244.090088,67.650276 244.524673,68.035629 244.959259,68.420982 
	C241.012802,75.821983 237.140839,83.285271 228.341507,86.680313 
	C230.604630,83.347504 232.867752,80.014702 235.331223,76.379578 
z"/>
<path fill="#8B81FB" opacity="1.000000" stroke="none" 
	d="
M167.773285,67.003845 
	C168.818085,65.765434 169.666718,64.790771 170.515350,63.816109 
	C170.832321,63.962330 171.149292,64.108551 171.466263,64.254776 
	C170.743561,65.933311 170.159149,67.688698 169.276062,69.278130 
	C162.737259,81.047035 156.151627,92.790001 149.544693,104.520844 
	C148.648956,106.111252 147.728210,107.753220 146.495453,109.067894 
	C145.464767,110.167076 143.960587,110.822258 142.666077,111.674065 
	C141.893616,110.280113 140.617905,108.944077 140.449463,107.480598 
	C140.052261,104.029381 139.643097,100.426575 140.211929,97.048981 
	C141.395706,90.020142 143.092422,83.067055 144.877823,76.160248 
	C145.187698,74.961533 146.968521,74.143051 148.069931,73.148941 
	C148.501511,74.615059 149.548615,76.224045 149.247803,77.520195 
	C148.387756,81.225784 146.658752,84.740280 145.918198,88.458733 
	C145.523849,90.438934 146.467072,92.685524 146.806549,94.811882 
	C148.422333,93.681755 150.521912,92.885994 151.572815,91.365448 
	C157.054398,83.434296 162.269394,75.318893 167.773285,67.003845 
z"/>
<path fill="#4C6971" opacity="1.000000" stroke="none" 
	d="
M267.659363,172.913101 
	C267.337250,169.871033 265.390411,166.439255 269.890228,165.086044 
	C272.510834,172.073761 272.170624,173.376404 267.659363,172.913101 
z"/>
<path fill="#4C6971" opacity="1.000000" stroke="none" 
	d="
M64.908691,89.529510 
	C63.530815,90.716972 61.668343,92.487885 60.959549,92.107735 
	C59.676083,91.419365 59.080551,89.448318 58.197811,88.012772 
	C59.383247,87.356796 60.738953,85.990181 61.711399,86.223167 
	C62.951031,86.520187 63.880814,88.110451 64.908691,89.529510 
z"/>
</svg>